<?xml version="1.0" encoding="UTF-8" standalone="no"?>
<svg
   width="613.59534"
   height="480"
   viewBox="0 0 613.59534 480"
   version="1.1"
   id="svg58"
   sodipodi:docname="Benzene.svg"
   inkscape:export-filename="Benzene.png"
   inkscape:export-xdpi="96"
   inkscape:export-ydpi="96"
   inkscape:version="1.3 (0e150ed6c4, 2023-07-21)"
   xmlns:inkscape="http://www.inkscape.org/namespaces/inkscape"
   xmlns:sodipodi="http://sodipodi.sourceforge.net/DTD/sodipodi-0.dtd"
   xmlns:xlink="http://www.w3.org/1999/xlink"
   xmlns="http://www.w3.org/2000/svg"
   xmlns:svg="http://www.w3.org/2000/svg">
  <defs
     id="defs58" />
  <sodipodi:namedview
     id="namedview58"
     pagecolor="#ffffff"
     bordercolor="#666666"
     borderopacity="1.0"
     inkscape:showpageshadow="2"
     inkscape:pageopacity="0.0"
     inkscape:pagecheckerboard="0"
     inkscape:deskcolor="#d1d1d1"
     inkscape:zoom="1.0827573"
     inkscape:cx="373.12149"
     inkscape:cy="227.65952"
     inkscape:window-width="1920"
     inkscape:window-height="991"
     inkscape:window-x="-9"
     inkscape:window-y="-9"
     inkscape:window-maximized="1"
     inkscape:current-layer="gnuplot_canvas" />
  <title
     id="title1">Gnuplot</title>
  <desc
     id="desc1">Produced by GNUPLOT 5.2 patchlevel 8 </desc>
  <g
     id="gnuplot_canvas"
     transform="translate(13.595312)">
    <rect
       x="0"
       y="0"
       width="600"
       height="480"
       fill="none"
       id="rect1" />
    <defs
       id="defs2">
      <circle
         id="gpDot"
         r="0.5"
         stroke-width="0.5"
         stroke="currentColor"
         cx="0"
         cy="0" />
      <path
         id="gpPt0"
         stroke-width="0.222"
         stroke="currentColor"
         d="M -1,0 H 1 M 0,-1 v 2" />
      <path
         id="gpPt1"
         stroke-width="0.222"
         stroke="currentColor"
         d="M -1,-1 1,1 M 1,-1 -1,1" />
      <path
         id="gpPt2"
         stroke-width="0.222"
         stroke="currentColor"
         d="M -1,0 H 1 M 0,-1 v 2 m -1,-2 2,2 m -2,0 2,-2" />
      <rect
         id="gpPt3"
         stroke-width="0.222"
         stroke="currentColor"
         x="-1"
         y="-1"
         width="2"
         height="2" />
      <rect
         id="gpPt4"
         stroke-width="0.222"
         stroke="currentColor"
         fill="currentColor"
         x="-1"
         y="-1"
         width="2"
         height="2" />
      <circle
         id="gpPt5"
         stroke-width="0.222"
         stroke="currentColor"
         cx="0"
         cy="0"
         r="1" />
      <use
         xlink:href="#gpPt5"
         id="gpPt6"
         fill="currentColor"
         stroke="none" />
      <path
         id="gpPt7"
         stroke-width="0.222"
         stroke="currentColor"
         d="m 0,-1.33 -1.33,2 h 2.66 z" />
      <use
         xlink:href="#gpPt7"
         id="gpPt8"
         fill="currentColor"
         stroke="none" />
      <use
         xlink:href="#gpPt7"
         id="gpPt9"
         stroke="currentColor"
         transform="scale(-1)" />
      <use
         xlink:href="#gpPt9"
         id="gpPt10"
         fill="currentColor"
         stroke="none" />
      <use
         xlink:href="#gpPt3"
         id="gpPt11"
         stroke="currentColor"
         transform="rotate(45)" />
      <use
         xlink:href="#gpPt11"
         id="gpPt12"
         fill="currentColor"
         stroke="none" />
      <path
         id="gpPt13"
         stroke-width="0.222"
         stroke="currentColor"
         d="M 0,1.33 1.265,0.411 0.782,-1.067 -0.782,-1.076 -1.265,0.411 Z" />
      <use
         xlink:href="#gpPt13"
         id="gpPt14"
         fill="currentColor"
         stroke="none" />
      <filter
         id="textbox"
         filterUnits="objectBoundingBox"
         x="0"
         y="0"
         height="1"
         width="1">
        <feFlood
           flood-color="white"
           flood-opacity="1"
           result="bgnd"
           id="feFlood1" />
        <feComposite
           in="SourceGraphic"
           in2="bgnd"
           operator="atop"
           id="feComposite1" />
      </filter>
      <filter
         id="greybox"
         filterUnits="objectBoundingBox"
         x="0"
         y="0"
         height="1"
         width="1">
        <feFlood
           flood-color="lightgrey"
           flood-opacity="1"
           result="grey"
           id="feFlood2" />
        <feComposite
           in="SourceGraphic"
           in2="grey"
           operator="atop"
           id="feComposite2" />
      </filter>
    </defs>
    <g
       fill="none"
       color="#ffffff"
       stroke="currentColor"
       stroke-width="1"
       stroke-linecap="butt"
       stroke-linejoin="miter"
       id="g2" />
    <g
       fill="none"
       color="#000000"
       stroke="currentColor"
       stroke-width="1"
       stroke-linecap="butt"
       stroke-linejoin="miter"
       id="g5">
      <path
         stroke="#000000"
         d="m 80.2,422.4 h 9"
         id="path2" />
      <g
         transform="translate(71.9,427.3)"
         stroke="none"
         fill="#000000"
         font-family="Verdana"
         font-size="15px"
         text-anchor="end"
         id="g4">
        <text
           id="text4"><tspan
             font-family="Verdana"
             id="tspan2">0x10</tspan><tspan
             font-family="Verdana"
             font-size="12px"
             dy="-7.5"
             id="tspan3">0</tspan><tspan
             font-size="15px"
             dy="7.5"
             id="tspan4" /></text>
      </g>
    </g>
    <g
       fill="none"
       color="#000000"
       stroke="currentColor"
       stroke-width="1"
       stroke-linecap="butt"
       stroke-linejoin="miter"
       id="g8">
      <path
         stroke="#000000"
         d="m 80.2,321.3 h 9"
         id="path5" />
      <g
         transform="translate(71.9,326.2)"
         stroke="none"
         fill="#000000"
         font-family="Verdana"
         font-size="15px"
         text-anchor="end"
         id="g7">
        <text
           id="text7"><tspan
             font-family="Verdana"
             id="tspan5">2x10</tspan><tspan
             font-family="Verdana"
             font-size="12px"
             dy="-7.5"
             id="tspan6">-</tspan><tspan
             font-family="Verdana"
             font-size="15px"
             dy="7.5"
             id="tspan7">3</tspan></text>
      </g>
    </g>
    <g
       fill="none"
       color="#000000"
       stroke="currentColor"
       stroke-width="1"
       stroke-linecap="butt"
       stroke-linejoin="miter"
       id="g11">
      <path
         stroke="#000000"
         d="m 80.2,220.2 h 9"
         id="path8" />
      <g
         transform="translate(71.9,225.1)"
         stroke="none"
         fill="#000000"
         font-family="Verdana"
         font-size="15px"
         text-anchor="end"
         id="g10">
        <text
           id="text10"><tspan
             font-family="Verdana"
             id="tspan8">4x10</tspan><tspan
             font-family="Verdana"
             font-size="12px"
             dy="-7.5"
             id="tspan9">-</tspan><tspan
             font-family="Verdana"
             font-size="15px"
             dy="7.5"
             id="tspan10">3</tspan></text>
      </g>
    </g>
    <g
       fill="none"
       color="#000000"
       stroke="currentColor"
       stroke-width="1"
       stroke-linecap="butt"
       stroke-linejoin="miter"
       id="g14">
      <path
         stroke="#000000"
         d="m 80.2,119.2 h 9"
         id="path11" />
      <g
         transform="translate(71.9,124.1)"
         stroke="none"
         fill="#000000"
         font-family="Verdana"
         font-size="15px"
         text-anchor="end"
         id="g13">
        <text
           id="text13"><tspan
             font-family="Verdana"
             id="tspan11">6x10</tspan><tspan
             font-family="Verdana"
             font-size="12px"
             dy="-7.5"
             id="tspan12">-</tspan><tspan
             font-family="Verdana"
             font-size="15px"
             dy="7.5"
             id="tspan13">3</tspan></text>
      </g>
    </g>
    <g
       fill="none"
       color="#000000"
       stroke="currentColor"
       stroke-width="1"
       stroke-linecap="butt"
       stroke-linejoin="miter"
       id="g17">
      <path
         stroke="#000000"
         d="m 80.2,18.1 h 9"
         id="path14" />
      <g
         transform="translate(71.9,23)"
         stroke="none"
         fill="#000000"
         font-family="Verdana"
         font-size="15px"
         text-anchor="end"
         id="g16">
        <text
           id="text16"><tspan
             font-family="Verdana"
             id="tspan14">8x10</tspan><tspan
             font-family="Verdana"
             font-size="12px"
             dy="-7.5"
             id="tspan15">-</tspan><tspan
             font-family="Verdana"
             font-size="15px"
             dy="7.5"
             id="tspan16">3</tspan></text>
      </g>
    </g>
    <g
       fill="none"
       color="#000000"
       stroke="currentColor"
       stroke-width="1"
       stroke-linecap="butt"
       stroke-linejoin="miter"
       id="g19">
      <path
         stroke="#000000"
         d="m 143,422.4 v -9 m 0,-395.3 v 9"
         id="path17" />
      <g
         transform="translate(143,445.3)"
         stroke="none"
         fill="#000000"
         font-family="Verdana"
         font-size="15px"
         text-anchor="middle"
         id="g18">
        <text
           id="text17"><tspan
             font-family="Verdana"
             id="tspan17">4.5</tspan></text>
      </g>
    </g>
    <g
       fill="none"
       color="#000000"
       stroke="currentColor"
       stroke-width="1"
       stroke-linecap="butt"
       stroke-linejoin="miter"
       id="g21">
      <path
         stroke="#000000"
         d="m 247.7,422.4 v -9 m 0,-395.3 v 9"
         id="path19" />
      <g
         transform="translate(247.7,445.3)"
         stroke="none"
         fill="#000000"
         font-family="Verdana"
         font-size="15px"
         text-anchor="middle"
         id="g20">
        <text
           id="text19"><tspan
             font-family="Verdana"
             id="tspan19">5</tspan></text>
      </g>
    </g>
    <g
       fill="none"
       color="#000000"
       stroke="currentColor"
       stroke-width="1"
       stroke-linecap="butt"
       stroke-linejoin="miter"
       id="g23">
      <path
         stroke="#000000"
         d="m 352.4,422.4 v -9 m 0,-395.3 v 9"
         id="path21" />
      <g
         transform="translate(352.4,445.3)"
         stroke="none"
         fill="#000000"
         font-family="Verdana"
         font-size="15px"
         text-anchor="middle"
         id="g22">
        <text
           id="text21"><tspan
             font-family="Verdana"
             id="tspan21">5.5</tspan></text>
      </g>
    </g>
    <g
       fill="none"
       color="#000000"
       stroke="currentColor"
       stroke-width="1"
       stroke-linecap="butt"
       stroke-linejoin="miter"
       id="g25">
      <path
         stroke="#000000"
         d="m 457,422.4 v -9 m 0,-395.3 v 9"
         id="path23" />
      <g
         transform="translate(457,445.3)"
         stroke="none"
         fill="#000000"
         font-family="Verdana"
         font-size="15px"
         text-anchor="middle"
         id="g24">
        <text
           id="text23"><tspan
             font-family="Verdana"
             id="tspan23">6</tspan></text>
      </g>
    </g>
    <g
       fill="none"
       color="#000000"
       stroke="currentColor"
       stroke-width="1"
       stroke-linecap="butt"
       stroke-linejoin="miter"
       id="g28">
      <path
         stroke="#000000"
         d="m 498.9,422.4 h -9"
         id="path25" />
      <g
         transform="translate(507.2,427.3)"
         stroke="none"
         fill="#e51e10"
         font-family="Verdana"
         font-size="15px"
         text-anchor="start"
         id="g27">
        <text
           id="text27"><tspan
             font-family="Verdana"
             id="tspan25">0x10</tspan><tspan
             font-family="Verdana"
             font-size="12px"
             dy="-7.5"
             id="tspan26">0</tspan><tspan
             font-size="15px"
             dy="7.5"
             id="tspan27" /></text>
      </g>
    </g>
    <g
       fill="none"
       color="#000000"
       stroke="currentColor"
       stroke-width="1"
       stroke-linecap="butt"
       stroke-linejoin="miter"
       id="g31">
      <path
         stroke="#000000"
         d="m 498.9,287.6 h -9"
         id="path28" />
      <g
         transform="translate(507.2,292.5)"
         stroke="none"
         fill="#e51e10"
         font-family="Verdana"
         font-size="15px"
         text-anchor="start"
         id="g30">
        <text
           id="text30"><tspan
             font-family="Verdana"
             id="tspan28">2x10</tspan><tspan
             font-family="Verdana"
             font-size="12px"
             dy="-7.5"
             id="tspan29">-</tspan><tspan
             font-family="Verdana"
             font-size="15px"
             dy="7.5"
             id="tspan30">9</tspan></text>
      </g>
    </g>
    <g
       fill="none"
       color="#000000"
       stroke="currentColor"
       stroke-width="1"
       stroke-linecap="butt"
       stroke-linejoin="miter"
       id="g34">
      <path
         stroke="#000000"
         d="m 498.9,152.9 h -9"
         id="path31" />
      <g
         transform="translate(507.2,157.8)"
         stroke="none"
         fill="#e51e10"
         font-family="Verdana"
         font-size="15px"
         text-anchor="start"
         id="g33">
        <text
           id="text33"><tspan
             font-family="Verdana"
             id="tspan31">4x10</tspan><tspan
             font-family="Verdana"
             font-size="12px"
             dy="-7.5"
             id="tspan32">-</tspan><tspan
             font-family="Verdana"
             font-size="15px"
             dy="7.5"
             id="tspan33">9</tspan></text>
      </g>
    </g>
    <g
       fill="none"
       color="#000000"
       stroke="currentColor"
       stroke-width="1"
       stroke-linecap="butt"
       stroke-linejoin="miter"
       id="g37">
      <path
         stroke="#000000"
         d="m 498.9,18.1 h -9"
         id="path34" />
      <g
         transform="translate(507.2,23)"
         stroke="none"
         fill="#e51e10"
         font-family="Verdana"
         font-size="15px"
         text-anchor="start"
         id="g36">
        <text
           id="text36"><tspan
             font-family="Verdana"
             id="tspan34">6x10</tspan><tspan
             font-family="Verdana"
             font-size="12px"
             dy="-7.5"
             id="tspan35">-</tspan><tspan
             font-family="Verdana"
             font-size="15px"
             dy="7.5"
             id="tspan36">9</tspan></text>
      </g>
    </g>
    <g
       fill="none"
       color="#000000"
       stroke="currentColor"
       stroke-width="1"
       stroke-linecap="butt"
       stroke-linejoin="miter"
       id="g38" />
    <g
       fill="none"
       color="#000000"
       stroke="currentColor"
       stroke-width="1"
       stroke-linecap="butt"
       stroke-linejoin="miter"
       id="g39">
      <path
         stroke="#000000"
         d="M 80.2,18.1 V 422.4 H 498.9 V 18.1 Z"
         id="path38" />
    </g>
    <g
       fill="none"
       color="#000000"
       stroke="currentColor"
       stroke-width="1"
       stroke-linecap="butt"
       stroke-linejoin="miter"
       id="g41"
       transform="translate(-20)">
      <g
         transform="rotate(-90,120.95,99.35)"
         stroke="none"
         fill="#000000"
         font-family="Verdana"
         font-size="20px"
         text-anchor="middle"
         id="g40">
        <text
           id="text39"><tspan
             font-family="Verdana"
             id="tspan39">Absortion</tspan></text>
      </g>
    </g>
    <g
       fill="none"
       color="#000000"
       stroke="currentColor"
       stroke-width="1"
       stroke-linecap="butt"
       stroke-linejoin="miter"
       id="g43"
       transform="translate(20)">
      <g
         transform="rotate(-90,396.4,-176.1)"
         stroke="none"
         fill="#e51e10"
         font-family="Verdana"
         font-size="20px"
         text-anchor="middle"
         id="g42">
        <text
           id="text41"><tspan
             font-family="Verdana"
             id="tspan41">Emission</tspan></text>
      </g>
    </g>
    <g
       fill="none"
       color="#000000"
       stroke="currentColor"
       stroke-width="1"
       stroke-linecap="butt"
       stroke-linejoin="miter"
       id="g45">
      <g
         transform="translate(289.5,473.9)"
         stroke="none"
         fill="#000000"
         font-family="Verdana"
         font-size="20px"
         text-anchor="middle"
         id="g44">
        <text
           id="text43"><tspan
             font-family="Verdana"
             id="tspan43">Energy (eV)</tspan></text>
      </g>
    </g>
    <g
       fill="none"
       color="#000000"
       stroke="currentColor"
       stroke-width="1"
       stroke-linecap="butt"
       stroke-linejoin="miter"
       id="g46" />
    <g
       id="gnuplot_plot_1">
      <title
         id="title46">Absortion</title>
      <g
         fill="none"
         color="#ffffff"
         stroke="currentColor"
         stroke-width="2.5"
         stroke-linecap="butt"
         stroke-linejoin="miter"
         id="g47" />
      <g
         fill="none"
         color="#000000"
         stroke="currentColor"
         stroke-width="2.5"
         stroke-linecap="butt"
         stroke-linejoin="miter"
         id="g49">
        <g
           transform="translate(418.6,43.3)"
           stroke="none"
           fill="#000000"
           font-family="Verdana"
           font-size="15px"
           text-anchor="end"
           id="g48">
          <text
             id="text47"><tspan
               font-family="Verdana"
               id="tspan47">Absortion</tspan></text>
        </g>
      </g>
      <g
         fill="none"
         color="#000000"
         stroke="currentColor"
         stroke-width="2.5"
         stroke-linecap="butt"
         stroke-linejoin="miter"
         id="g50">
        <path
           stroke="#000000"
           d="m 429.1,38.4 h 51 m -241.3,383.9 2.2,-0.1 2.1,-0.3 2.1,-0.6 2.1,-1.1 2.1,-1.8 2.1,-2.7 2.2,-3.6 2.1,-4.7 2.1,-5.9 2.1,-7 2.1,-7.5 2.1,-7.1 2.2,-5.8 2.1,-4.5 2.1,-3.3 2.1,-3 2.1,-3.3 2.1,-4.1 2.2,-5.9 2.1,-9.3 2.1,-14.6 2.1,-20.2 2.1,-23.4 2.2,-21.2 2.1,-13.4 2.1,-3.5 2.1,3.2 2.1,2.9 2.1,-3.7 2.2,-13 2.1,-19.5 2.1,-21 2.1,-17.7 2.1,-12.5 2.1,-7.2 2.2,-2.7 2.1,0.4 2.1,1.4 2.1,-1.1 2.1,-7.1 2.1,-13.4 2.2,-16 2.1,-11.4 2.1,-1.3 2.1,9.1 2.1,14.1 2.1,11.9 2.2,4.9 2.1,-2.7 2.1,-6.9 2.1,-6.4 2.1,-1.9 2.1,4.5 2.2,10.9 2.1,16.1 2.1,19.7 2.1,21.2 2.1,20.2 2.1,17.7 2.2,14.9 2.1,13.5 2.1,13.9 2.1,15.6 2.1,17 2.1,17 2.2,15 2.1,12 2.1,9.2 2.1,7.1 2.1,5.3 2.1,3.2 2.2,0.3 2.1,-2.7 2.1,-4.6 2.1,-4.8 2.1,-2.8 2.1,0.5 2.2,3.7 2.1,5.7 2.1,6.3 2.1,5.8 2.1,4.9 2.1,3.9 2.2,3.2 2.1,2.7 2.1,2.6 2.1,2.7 2.1,2.7 2.2,2.5 2.1,2.3 2.1,1.9 2.1,1.6 2.1,1.3 2.1,0.8 2.2,0.5 2.1,0.2 2.1,-0.2 2.1,-0.4 2.1,-0.7 2.1,-0.9 2.2,-0.9 2.1,-0.4 2.1,0.1 2.1,0.7 2.1,0.9 2.1,0.8 2.2,0.7 2.1,0.4 2.1,0.2 2.1,0.1"
           id="path49" />
      </g>
    </g>
    <g
       id="gnuplot_plot_2">
      <title
         id="title50">Emission</title>
      <g
         fill="none"
         color="#000000"
         stroke="currentColor"
         stroke-width="2.5"
         stroke-linecap="butt"
         stroke-linejoin="miter"
         id="g52">
        <g
           transform="translate(418.6,65.8)"
           stroke="none"
           fill="#000000"
           font-family="Verdana"
           font-size="15px"
           text-anchor="end"
           id="g51">
          <text
             id="text50"><tspan
               font-family="Verdana"
               id="tspan50">Emission</tspan></text>
        </g>
      </g>
      <g
         fill="none"
         color="#000000"
         stroke="currentColor"
         stroke-width="2.5"
         stroke-linecap="butt"
         stroke-linejoin="miter"
         id="g53">
        <path
           stroke="#e51e10"
           d="m 429.1,60.9 h 51 m -380,361.4 2.2,-0.2 2.1,-0.5 2.1,-0.9 2.1,-1.5 2.1,-1.9 2.2,-2.1 2.1,-1.4 2.1,-0.3 2.1,1.1 2.2,1.9 2.1,2 2.1,1.7 2.1,1.2 2.2,0.6 2.1,0.2 h 2.1 l 2.1,-0.2 2.2,-0.7 2.1,-1.5 2.1,-3 2.1,-4.7 2.2,-6.1 2.1,-6.5 2.1,-5.1 2.1,-2.5 2.2,0.5 2.1,2.6 2.1,3.1 2.1,1.4 2.1,-1.7 2.2,-5.8 2.1,-9.3 2.1,-10.4 2.1,-8.8 2.2,-4.8 2.1,-0.5 2.1,2.2 2.1,2.2 2.2,-0.5 2.1,-5.1 2.1,-9.5 2.1,-12.7 2.2,-13.2 2.1,-10.2 2.1,-4.7 2.1,0.8 2.2,3 2.1,0.2 2.1,-7.1 2.1,-15.6 2.1,-21.1 2.2,-20.9 2.1,-14.7 2.1,-5.2 2.1,3.7 2.2,8.6 2.1,8.6 2.1,4.6 2.1,-0.8 2.2,-6 2.1,-10 2.1,-13.1 2.1,-14.8 2.2,-14.8 2.1,-12.7 2.1,-8.2 2.1,-2.4 2.2,2.6 2.1,4.5 2.1,2.2 2.1,-3.2 2.2,-9.6 2.1,-14.6 2.1,-15.8 2.1,-12.2 2.1,-5 2.2,3.1 2.1,9 2.1,11.6 2.1,12.7 2.2,14.9 2.1,18.8 2.1,23 2.1,24.2 2.2,21.3 2.1,14.9 2.1,8 2.1,2.5 2.2,-0.5 2.1,-1.7 2.1,-1.6 2.1,-0.7 2.2,1.1 2.1,3.9 2.1,7.5 2.1,10.7 2.1,12.8 2.2,13.7 2.1,13.6 2.1,12.7 2.1,10.8 2.2,7.6 2.1,4.3 2.1,1.8 2.1,0.9 2.2,1.8 2.1,3.2 2.1,4.6 2.1,5.3 2.2,5.3 2.1,4.4 2.1,2.9 2.1,1.2 2.2,-0.2 2.1,-0.5 2.1,0.3 2.1,1.8 2.1,3 2.2,3.5 2.1,2.9 2.1,2.1 2.1,1.3 2.2,0.5 2.1,0.3"
           id="path52" />
      </g>
    </g>
    <g
       fill="none"
       color="#ffffff"
       stroke="#e51e10"
       stroke-width="2"
       stroke-linecap="butt"
       stroke-linejoin="miter"
       id="g54" />
    <g
       fill="none"
       color="#000000"
       stroke="currentColor"
       stroke-width="2"
       stroke-linecap="butt"
       stroke-linejoin="miter"
       id="g55" />
    <g
       fill="none"
       color="#000000"
       stroke="#000000"
       stroke-width="1"
       stroke-linecap="butt"
       stroke-linejoin="miter"
       id="g56" />
    <g
       fill="none"
       color="#000000"
       stroke="currentColor"
       stroke-width="1"
       stroke-linecap="butt"
       stroke-linejoin="miter"
       id="g57">
      <path
         stroke="#000000"
         d="M 80.2,18.1 V 422.4 H 498.9 V 18.1 Z"
         id="path56" />
    </g>
    <g
       fill="none"
       color="#000000"
       stroke="currentColor"
       stroke-width="1"
       stroke-linecap="butt"
       stroke-linejoin="miter"
       id="g58" />
  </g>
</svg>
